<?xml version="1.0" encoding="UTF-8" standalone="no"?>
<!-- Created with Inkscape (http://www.inkscape.org/) -->

<svg
   version="1.1"
   id="svg1"
   width="19271.01"
   height="18404.094"
   viewBox="0 0 19271.01 18404.094"
   xmlns="http://www.w3.org/2000/svg"
   xmlns:svg="http://www.w3.org/2000/svg">
  <defs
     id="defs1" />
  <g
     id="layer1"
     style="display:inline"
     transform="translate(0.34104389)">
    <path
       style="fill:#454545;fill-opacity:1;stroke-width:1.37953"
       d="m 9315.7963,95.497162 70.4171,-50.642435 48.2309,-27.491607 59.324,-16.39850221 42.9255,-0.48230889 43.4078,15.9161941 54.9832,61.735538 4.8231,10.610796 27.4916,20.256973 -6.27,31.35008 7.717,13.50465 -16.3985,53.05398 -94.5326,35.69086 -20.7393,10.61079 -27.0093,19.77467 v 4.34078 l -67.0409,81.02789 -17.3631,17.84543 -23.6332,14.46927 -48.7132,-17.84543 -33.2793,-48.23089 -15.4339,0.48231 -15.4338,-3.37617 1.4469,28.93854 10.6108,29.42084 35.6908,22.66852 -2.4115,40.03164 -0.9646,34.24393 -37.1378,49.67782 -56.4301,35.69085 -27.0093,-0.4823 -20.257,24.11544 -52.0894,19.77466 -19.2923,-7.71694 -35.6909,23.63314 h -5.7877 l -43.8901,53.53629 -43.8901,40.51394 -13.0224,18.32774 -10.1284,84.40406 -43.8902,34.24393 -14.9515,-13.98696 -51.6071,47.74858 -12.0577,-8.19925 1.9292,17.84543 -29.4208,44.85473 -28.4562,0.48231 -6.7524,-4.34078 -11.5754,28.45622 -55.9478,19.29236 -17.3631,65.11173 2.8938,22.1862 -3.3761,85.3687 -41.4786,20.7392 -46.784,-26.527 -4.3407,-1.9292 -31.3501,-21.7039 -17.8455,18.8101 -26.0446,-15.9162 4.3407,-49.1955 -20.2569,-31.3501 -1.9293,-95.01487 -49.1955,23.15082 -51.607,-40.03164 -51.1248,39.06702 -16.3985,-2.89385 -37.1378,51.60702 -21.2215,-8.1992 -31.8324,25.08 -28.9386,-27.4916 -21.7039,5.7877 -44.8547,-45.8193 -11.0931,-4.34078 -9.6462,9.64618 24.1155,15.43388 12.54,40.03162 16.8808,22.1862 27.9739,40.9963 16.3985,14.9516 v 6.27 l 20.257,14.4692 3.8585,-34.7262 50.1601,-50.6424 45.8193,-24.1155 44.3725,23.1509 6.7523,10.1284 3.8585,-8.1992 46.3016,-20.7393 43.4078,29.9032 -3.8585,87.2979 -56.9124,70.8994 -18.3277,84.404 10.1284,49.1955 -28.9385,31.8324 -93.0856,27.9739 -34.2439,-5.3054 -37.6201,30.8678 -14.9516,54.5009 12.0577,62.7002 -22.6685,40.9962 -50.6424,0.4823 -33.7617,-22.1862 -34.2439,57.8771 -1.9292,28.4562 91.6387,240.6722 -17.8455,97.4264 5.7877,64.6294 -0.4823,22.1862 -12.0577,67.0409 2.8939,4.3408 v 24.5977 l -6.2701,10.6108 v 14.4693 l -50.6424,23.6331 -3.8585,6.27 -12.0577,21.2216 -26.0447,16.8809 -32.797,17.3631 -24.5977,18.81 -31.3501,15.4339 -8.1993,18.3277 4.8231,74.2756 17.3632,14.9516 283.1153,214.1451 39.067,19.2924 108.0372,84.8864 -57.3948,76.2048 81.9925,62.2178 92.121,-257.0706 34.244,-34.7263 c 0,0 7.7169,-8.1992 12.0577,-4.3408 4.3408,3.8585 50.6424,17.3632 50.6424,17.3632 l -109.0018,305.3015 -10.6108,-2.8939 -57.3947,163.5028 -47.2663,-17.8455 13.0223,-35.2085 -22.6685,-10.6108 -4.8231,-15.9162 27.9739,-70.4171 -1.4469,-9.1639 -81.9925,-61.7355 -30.3855,41.9609 -67.5232,11.5754 -54.9832,-31.8324 -47.2663,10.6108 -36.1732,49.1955 3.3762,53.5363 12.54,8.6815 35.6909,-6.27 12.54,10.1285 v 18.8101 l -21.2216,14.4692 -10.1284,0.4823 -55.4656,48.7132 -0.9646,8.6816 19.2924,43.8901 -6.7524,10.1285 -9.6461,-4.8231 -48.2309,-6.7523 -40.0317,-20.257 13.5047,-13.5046 38.1024,3.8584 13.0223,-8.1992 -2.4115,-9.6462 -13.987,-8.1993 -36.1731,-37.1377 -16.8809,0.4823 -13.0223,24.5977 -13.5046,7.2347 -27.4916,7.2346 -26.527,0.4823 -55.4656,76.6871 h -12.0577 l -107.0726,221.3798 10.6108,7.7169 12.5401,28.9386 90.1917,14.9515 100.8026,47.7486 39.5493,-2.8938 47.7486,22.1862 32.3147,4.3408 37.1378,-7.717 38.1024,10.6108 97.9087,13.0224 -0.9646,4.3407 52.5716,17.3632 19.2924,-5.7877 32.3147,13.5046 29.9031,-1.9292 37.1378,0.9646 10.6108,-3.3762 25.0801,-15.4339 37.1378,-12.0577 11.0931,0.4823 161.0912,-83.9217 133.1172,-7.717 25.0801,-8.6815 6.27,-13.5047 170.7373,20.7393 132.1527,-53.054 43.4078,18.8101 86.3333,-17.8455 95.9794,-37.1377 64.6294,2.4115 14.9516,-13.5046 57.3948,9.1638 72.3463,-35.6908 45.337,-6.27 63.1825,-37.1378 38.1024,-52.5717 70.8994,-24.5978 20.7393,17.3632 -8.1993,20.2569 -41.4785,11.5754 7.2346,16.8809 -1.9292,7.2346 -23.1509,29.9031 4.8231,23.1509 28.9386,13.9869 17.8454,-22.6685 37.1378,9.6462 18.81,19.2923 -1.4469,15.9162 -10.6108,13.0224 -40.9962,-6.27 -10.1285,6.7523 -62.7002,12.54 -32.797,-10.1285 -52.0894,38.5847 -44.3724,-12.54 -82.9571,30.3855 -34.7262,1.9292 -27.0093,-21.7039 -92.6034,57.3948 -27.4916,-5.3054 -14.9515,8.1992 -27.4916,37.6201 -41.4786,-5.3054 -12.54,1.9293 -9.6462,-2.8939 -172.1843,53.054 -77.6517,-11.5754 -40.514,13.5046 -24.5977,-5.7877 -36.1732,-0.4823 -73.7933,62.2178 -41.4785,-2.8938 -23.1508,18.3277 -40.0317,14.4693 -16.3985,-11.0931 -65.1117,2.8938 -52.4134,-14.1294 -15.5175,0.682 -79.8042,9.7198 -40.4137,11.5955 -16.0291,-1.0231 -46.5525,-8.3556 -26.9425,3.0694 -29.8413,-15.1765 -20.8037,4.0925 -35.1275,-5.4567 -19.61,-1.7052 -22.5089,33.5928 c 0,0 -15.347,5.9683 -16.1996,5.9683 -0.8526,0 -57.4659,-24.7257 -57.4659,-24.7257 l -36.3212,-6.1388 -16.5406,-18.5869 -26.4309,-8.3555 c 0,0 -41.6074,20.9742 -43.1421,21.3152 -1.5347,0.3411 -33.7633,1.0231 -33.7633,1.0231 l -74.3476,25.2373 c 0,0 -20.2921,45.0178 -22.3384,45.8704 -2.0462,0.8526 -17.2227,5.6272 -17.2227,5.6272 l -48.7692,-27.113 -42.9716,-10.5723 -22.1678,16.3701 -11.084,19.4395 -23.1909,-2.0463 -28.3067,-26.0898 -79.2927,-6.6504 -68.8909,-29.1592 -30.5234,2.0462 -25.4078,-0.341 -33.0812,-8.8672 -65.1394,-72.8128 0.5116,-59.6827 -17.5638,-47.9167 -42.2894,-28.4772 -24.0436,-31.376 -20.8037,-75.0296 9.2082,-20.4627 -20.9742,-59.0006 9.7197,-46.0409 28.3067,-32.5697 1.1936,-7.6735 28.8182,9.8903 24.2142,-5.9683 60.7058,18.4164 46.8935,-15.8585 165.5768,91.3997 20.9742,57.807 86.1136,91.7408 107.0878,-218.0976 -26.9425,-48.5988 7.844,-19.61 -16.5406,-16.1996 -12.9597,-51.1565 -62.5815,-32.3992 -69.391,-55.5145 -35.8114,-63.4237 -31.2295,-117.9245 0.6029,-86.5744 37.2583,-52.9334 23.0303,-19.7747 29.3003,-44.8547 2.0498,-66.3175 -17.0014,-40.0316 -47.0251,-24.1155 -28.5768,-2.8938 -19.5335,5.9082 -27.7328,5.1849 -26.4064,8.3198 -39.067,-24.5978 -10.1285,3.4968 -47.9898,-44.1313 -11.8165,-23.0302 0.3617,-17.8455 21.5833,-65.4734 v -11.4548 l 4.7025,-5.6672 9.7668,-39.6699 -1.4469,-36.776 44.0107,-58.1182 1.688,-7.8376 0.3618,-42.9255 21.4627,-22.3067 56.7919,13.8663 55.2244,-33.8822 15.5544,-50.763 55.345,-39.7905 h 4.5819 l 3.6173,-7.5963 16.3985,-8.561 -3.979,-50.763 -17.6043,-15.6751 -20.0158,-35.0879 3.2556,-20.3776 -8.0787,-28.5768 -18.6895,-40.0316 -15.1927,-14.3487 -1.6881,-20.7393 5.0642,-4.4614 -20.2569,-50.1601 -1.6881,-22.0656 7.9581,-12.0577 14.4693,5.5465 29.7825,-9.405 35.6909,21.3422 16.8808,5.4259 37.8612,23.6332 12.0578,49.7984 11.3342,21.5833 v 38.223 l -4.2202,10.1285 16.278,11.5754 32.4352,42.0814 16.5191,13.3841 35.932,39.5493 0.3617,44.8548 -2.1703,2.2909 0.9646,33.5205 c 0,0 1.2057,-1.2058 1.3263,-0.7235 0.1206,0.4823 0,13.6253 0,13.6253 l -12.2989,5.9082 14.5899,16.3985 6.3906,-13.0223 4.0996,-1.5675 7.9581,-35.4497 27.4916,-15.3133 1.2058,-4.5819 -27.0093,-46.0605 -1.8087,-44.2519 -7.4758,-10.4902 -12.7811,-7.5964 -36.7761,-9.0433 -34.0028,-32.0735 4.3408,-35.088 -2.5321,-12.2989 5.7877,-35.8114 14.4693,-5.1848 1.5675,-3.2556 -1.5675,-1.8087 15.1927,-53.4157 -20.3776,-25.4418 -24.1154,-19.1717 -3.0144,0.2411 -14.831,-6.27 -27.7328,18.5689 -78.134,-62.459 -32.9176,-49.4367 -3.0145,-70.8994 22.1863,-25.8035 21.3421,4.8231 19.0512,-3.8585 6.3906,-6.0289 3.7379,-22.9096 16.5191,-30.7472 15.4339,5.5465 71.5023,-68.1261 10.7313,-30.8678 3.2556,-2.2909 -2.2909,-45.6988 -29.662,-45.9399 31.4706,-30.8678 4.2202,-21.2216 37.379,-33.2793 50.6424,-100.19967 17.8454,-59.44457 49.1955,-82.71598 20.9805,-18.81005 20.0158,-53.05397 36.2937,-31.2295 56.0684,-78.61636 50.2807,-27.37103 27.1299,5.06425 27.7328,-16.88081 31.1089,-50.88359 96.8235,-69.81421 84.4041,-95.73832 56.189,-0.12058 139.8695,34.00278 131.3086,-69.21133 55.9479,-100.19967 -21.3422,-37.25836 6.6318,-18.32774 68.8495,-29.90315 c 0,0 31.2296,13.38407 31.2296,14.10753 0,0.72347 29.1796,-10.73137 29.1796,-10.73137 l 25.9241,1.92923 40.3934,3.97905 10.3697,2.89386 48.9543,-22.42737 78.8575,-3.25558 126.4855,-37.499519 z"
       id="path1" />
    <path
       style="fill:#454545;fill-opacity:1;stroke-width:1.37953"
       d="m 8225.0408,2109.1007 4.2631,10.5724 -4.5189,8.6113 0.5969,2.5578 26.6014,-3.4104 29.074,-11.5955 12.3628,-46.382 -4.8599,-6.9061 -17.5637,6.2241 -9.805,0.4263 -5.201,-1.7053 -9.0376,1.1937 -12.1071,7.4177 z"
       id="path2" />
    <path
       style="fill:#454545;fill-opacity:1;stroke-width:1.37953"
       d="m 9482.6752,1397.9723 70.4171,-58.6005 45.0959,-94.2914 39.5493,-39.7905 4.0997,-15.675 17.6042,-20.4981 9.1639,0.7234 1.4469,26.0447 -13.9869,51.8482 -16.1574,30.6266 -3.135,19.7747 6.0289,3.8585 -2.6527,7.2346 -0.7235,25.0801 3.8585,14.7104 8.1992,12.7812 -0.9646,17.1219 -8.1992,5.3054 -15.9162,6.9935 -22.6685,4.0996 -13.0224,8.1993 -35.932,13.9869 -26.527,4.3408 -26.2858,-3.3761 -17.8454,-7.9581 z"
       id="path3" />
    <path
       style="fill:#454545;fill-opacity:1;stroke-width:1.37953"
       d="m 7875.3856,3265.6658 21.3152,-13.8123 5.2862,9.8903 8.3556,8.5261 13.1301,-5.4567 6.1388,20.8037 -4.6041,15.688 0.3411,9.8902 -11.2545,10.0608 -28.8182,2.3874 -21.4857,-24.7257 z"
       id="path4" />
  </g>
  <g
     id="layer2"
     transform="translate(0.34104389)">
    <path
       style="fill:#454545;fill-opacity:1;stroke-width:1.37953"
       d="m 13049.021,5201.0899 19.014,34.1896 -0.427,26.9425 -17.734,97.8796 -44.933,51.2418 3.667,68.5499 -8.271,24.8962 -32.98,21.5058 -5.305,26.0447 8.681,31.8324 138.423,134.0819 33.761,84.404 147.105,64.1471 68.97,89.2272 164.467,73.3109 40.996,-30.8677 220.416,213.1805 103.696,49.1955 60.771,74.7579 123.471,-1.447 67.523,32.3147 116.237,-7.2346 130.223,72.3463 140.352,-35.2085 40.514,-51.1247 86.333,-83.9218 25.08,-14.4693 115.754,13.987 29.904,10.6108 50.642,0.4823 9.646,-9.1639 141.317,-73.7932 27.009,2.8938 29.421,23.6332 19.292,16.3985 50.16,137.9403 -44.372,194.3705 21.704,106.5903 98.391,91.6386 121.059,26.0447 51.125,2.8939 97.909,-147.1042 40.996,-181.8305 -82.475,-110.931 v -109.4842 l -67.041,-152.8919 25.08,-56.4301 132.153,-97.4264 58.359,-26.0447 93.086,-129.2588 v -215.5921 l -91.156,-86.3332 -88.745,38.5847 -131.671,-67.5233 -196.782,38.1024 -12.057,22.1862 -19.775,32.3147 -18.328,4.8231 -14.469,-4.3408 -61.253,-27.9739 -71.382,-50.1601 -130.706,20.257 -87.78,-54.5009 -162.538,30.3854 -90.674,-41.4785 -122.506,48.2309 -123.954,0.4823 -133.599,-45.8194 -110.449,-110.4487 -78.134,-116.2365 -24.598,-47.7485 -83.439,-54.501 -44.373,-121.5418 -32.315,-15.9162 -50.16,9.6462 -22.668,-15.4339 -48.713,-61.7355 -77.652,-55.4656 -187.618,-69.4524 -40.997,-63.6648 -76.204,-25.5624 -192.442,58.3594 -30.867,42.9255 9.646,82.9571 -34.726,62.2179 -1.447,56.4301 42.443,40.9963 2.411,78.134 -25.08,96.9441 z"
       id="path5" />
    <path
       style="fill:#454545;fill-opacity:1;stroke-width:1.37953"
       d="m 14134.545,5172.2806 h 58.841 l 43.408,20.257 28.939,23.1508 32.797,44.3724 245.012,-17.3631 105.144,-101.2849 10.611,-38.5847 -18.328,-21.2216 -22.186,-4.8231 -17.363,-36.6554 7.716,-24.1155 -1.929,-39.5493 10.611,-102.2495 44.372,-41.4786 24.116,-79.0986 -25.08,-42.4432 3.858,-27.9739 -25.08,-27.9739 -80.063,-13.5047 -32.797,-0.9646 -37.62,-38.5847 6.752,-19.2924 -43.408,-30.8677 h -23.15 l -34.727,-20.257 -36.655,5.7877 -21.222,-17.3631 -8.681,-34.7263 11.575,-20.2569 -26.045,-43.4078 -25.08,-1.9293 -31.832,30.8678 -39.549,-2.8939 -54.019,40.514 -42.443,72.3463 17.363,123.4711 -23.151,95.4972 2.894,37.6201 -37.62,88.7448 35.691,93.5679 -18.328,69.4525 9.646,84.8864 z"
       id="path6" />
  </g>
  <g
     id="layer3"
     transform="translate(0.34104389)">
    <path
       style="fill:#454545;fill-opacity:1;stroke-width:1.37953"
       d="m 191.23548,7611.799 43.4078,-51.607 37.37894,-78.3752 34.48508,-1.2058 85.12752,34.9674 69.93479,-12.2989 61.01208,-21.2216 21.22159,-11.8165 0.24116,-20.0159 34.00277,-90.674 70.65826,-34.244 28.69738,-8.1992 0.24115,-5.3054 7.9581,-0.2412 4.58193,-4.3407 6.75233,3.3761 -2.17039,-6.27 10.85195,-7.2346 -0.48231,-41.7198 0.24115,-15.9161 31.10893,-47.5075 c 0,0 15.67504,-89.4683 16.15734,-90.4329 0.48231,-0.9646 123.47108,-53.2951 123.47108,-53.2951 l 177.24849,16.8808 100.8026,38.5847 73.0698,3.135 85.6098,-9.405 70.176,-77.6518 47.5074,-22.4273 10.6108,-34.7263 128.2942,-136.9757 53.0539,-28.9385 30.8678,5.7877 76.2048,113.8249 60.7709,19.2923 4.8231,17.3632 27.0093,11.5754 48.2309,-14.4693 4.8231,30.8678 -24.1155,89.7094 -82.9571,127.3296 -23.1508,86.8156 14.4693,58.8417 0.9646,36.6554 -15.4339,44.3725 -4.8231,49.1955 46.3017,51.1247 46.3016,-1.9292 163.985,116.7187 28.9386,115.7542 v 98.391 l -119.6126,59.8063 -15.4339,34.7262 19.2923,88.7449 -1.9292,61.7355 -34.7262,32.797 -28.9386,82.9571 7.717,133.1173 -102.2495,77.1694 -77.1694,123.4711 -67.5233,-23.1508 -7.7169,55.9478 -13.5047,-5.7877 1.9293,-28.9386 -131.1881,-81.0278 -40.5139,86.8156 9.6462,19.2923 44.3724,-9.6462 115.7541,52.0894 3.8585,17.3631 61.7355,98.391 69.4525,63.6648 v 11.5754 l -13.5046,21.2216 -3.2942,9.5124 16.7111,36.4916 13.9828,98.2207 19.0985,20.8037 -13.6418,26.6014 -15.347,-7.1619 h -8.8671 l -6.1388,5.7977 -24.2141,65.4804 -65.4804,74.6887 -64.7984,24.8962 -115.9549,14.6648 -50.4745,63.7753 5.1157,31.376 -65.1394,90.3766 -12.6186,84.5789 -49.7924,33.4223 14.3238,41.9484 -95.8333,104.7005 c 0,0 -11.9366,65.8215 -13.6418,68.8908 -1.7052,3.0694 -80.1453,88.6715 -80.1453,88.6715 l -71.2782,38.1969 -28.98871,46.723 -10.23132,-1.3642 -136.7586,-158.2444 1.70522,-102.3131 -89.3535,-326.379 -21.48577,-52.5208 -20.46263,-157.2212 32.05813,-18.7574 9.89027,-17.7343 -0.34104,-7.503 -14.32385,-21.4857 -2.04626,-50.1335 29.32977,-34.7865 20.80368,4.4336 9.20819,-3.4104 15.00593,-56.2723 -28.30665,-34.1044 -4.77461,-21.4857 31.03499,-12.2776 24.21412,-94.8102 -12.61862,-13.6418 8.86714,-17.7343 16.71115,6.4799 27.28351,-58.3185 -63.43416,-72.9834 41.94839,-151.4235 -90.03558,-65.4804 -32.39917,-0.6821 -16.71115,-35.4686 -22.16786,-2.3873 -34.10439,29.3298 -9.20818,-3.0694 -24.55516,-16.3701 9.20818,-38.1969 37.85588,-17.0522 20.12159,0.6821 20.80367,-13.6418 -28.64768,-32.3992 -33.76335,1.7052 -88.90463,-72.3127 -17.36312,-100.8025 -12.54003,-6.27 -40.03164,10.6108 -82.47482,-38.1024 -24.59776,-83.4395 13.02234,-88.2625 -19.29235,-85.851 -188.10047,-133.1173 z"
       id="path7" />
  </g>
  <g
     id="layer4"
     transform="translate(0.34104389)">
    <path
       style="fill:#454545;fill-opacity:1;stroke-width:1.37953"
       d="m 258.03526,14354.477 -8.68156,20.257 47.26627,22.669 -7.71694,9.405 -0.24115,10.37 -10.36965,4.099 -1.68808,26.768 -3.37616,3.135 -22.66852,5.547 -2.89385,9.646 4.09962,38.585 -11.57541,7.234 3.85847,18.81 -39.30817,-7.475 -1.68808,19.051 39.06702,12.781 11.0931,18.81 -2.6527,22.186 -28.45622,23.633 8.68156,13.023 29.66199,-15.193 1.44693,6.511 1.68808,5.064 13.50465,-0.964 5.54655,4.099 2.41155,9.164 10.12849,-3.135 2.41154,9.405 6.27002,11.335 2.17039,8.681 11.81656,10.37 -15.67504,79.098 33.52047,20.74 27.25046,-7.958 12.29887,-18.569 95.25601,-10.852 78.41781,54.359 67.69722,-22.509 75.02965,30.353 39.73162,-47.405 14.83541,11.766 8.86714,1.023 10.40184,10.573 -5.96827,9.037 -11.93654,3.581 -19.78054,11.425 13.47123,13.301 45.52936,13.301 53.71441,44.335 24.55516,-8.185 30.35291,-29.5 10.57236,-89.183 -117.14858,2.046 -14.32384,-8.867 41.26631,-110.328 10.40184,-68.379 50.64502,-46.041 -137.44069,-125.845 -46.72302,-0.853 -3.922,26.431 -19.4395,6.821 0.68209,-13.812 -18.24585,-3.411 -21.82681,-30.694 -22.33838,-5.456 -20.12159,6.139 5.28618,20.462 10.23132,9.379 -27.45403,16.541 -15.5175,-12.278 -8.01453,12.278 -59.51216,-24.556 -31.71708,-55.76 -90.71768,-26.09 -4.60409,7.162 -9.89027,40.584 -23.02047,7.503 -45.8704,-18.246 z"
       id="path8" />
    <path
       style="fill:#454545;fill-opacity:1;stroke-width:1.37953"
       d="m 297.39027,14177.962 -14.06806,7.162 16.88168,1.876 6.65035,-17.479 -13.89754,-4.945 z"
       id="path9" />
    <path
       style="fill:#454545;fill-opacity:1;stroke-width:1.37953"
       d="m 87.900797,14275.198 4.702511,-1.568 1.868947,1.809 9.284445,-0.301 3.07472,1.627 -0.36173,-17.122 -2.59241,0.362 -7.837521,7.295 -10.972527,-11.997 2.351256,19.473 z"
       id="path10" />
    <path
       style="fill:#454545;fill-opacity:1;stroke-width:1.37953"
       d="m 199.43473,14431.767 11.75628,13.987 3.13501,-1.748 -2.89386,-18.509 -12.78118,6.09 0.30144,-0.06 z"
       id="path11" />
    <path
       style="fill:#454545;fill-opacity:1;stroke-width:1.37953"
       d="m 201.42425,14473.969 9.5256,-9.163 24.53747,7.958 4.34078,24.537 z"
       id="path12" />
    <path
       style="fill:#454545;fill-opacity:1;stroke-width:1.37953"
       d="m 92.362154,14554.816 0.783752,10.852 12.238584,0.181 3.07472,-2.652 -5.12453,-11.033 -7.355209,-0.302 -4.039337,3.075 z"
       id="path13" />
    <path
       style="fill:#454545;fill-opacity:1;stroke-width:1.37953"
       d="m 134.7976,14673.158 4.00726,2.046 6.47984,-6.65 8.18505,11.595 -2.30204,2.899 -8.18506,-0.767 -5.20092,4.945 -0.93787,-4.69 -2.04626,-0.937 z"
       id="path14" />
    <path
       style="fill:#454545;fill-opacity:1;stroke-width:1.37953"
       d="m 260.98384,14664.973 9.54923,-10.743 9.89027,-0.512 1.87574,11.169 -8.5261,9.635 z"
       id="path15" />
    <path
       style="fill:#454545;fill-opacity:1;stroke-width:1.37953"
       d="m 182.43334,14758.17 26.04468,12.781 22.7891,-10.128 -8.92272,-17.605 -25.32122,0.362 z"
       id="path16" />
    <path
       style="fill:#454545;fill-opacity:1;stroke-width:1.37953"
       d="m 0.17052195,14758.419 3.41043895,9.805 -3.5809609,5.03 18.075326,0.512 -1.79048,-12.534 -5.712485,0.256 -7.1619221,-6.309 -3.75148279,0.852 0.25578292,3.667 z"
       id="path17" />
    <path
       style="fill:#454545;fill-opacity:1;stroke-width:1.37953"
       d="m 89.468301,14888.032 -5.064244,0.723 -1.688081,-12.781 16.51908,-4.1 7.837524,16.519 -1.56751,3.256 -13.022339,-10.973 -1.929235,7.838 z"
       id="path18" />
    <path
       style="fill:#454545;fill-opacity:1;stroke-width:1.37953"
       d="m 340.99239,14945.547 6.14944,1.809 -2.41155,18.81 15.9162,-11.335 -7.9581,-19.654 -14.71042,6.994 z"
       id="path19" />
    <path
       style="fill:#454545;fill-opacity:1;stroke-width:1.37953"
       d="m 650.28544,14858.984 -3.66622,13.812 10.70025,0.725 0.9805,5.585 1.96101,0.341 9.20818,-8.697 0.12789,-7.205 -4.51883,-0.596 -8.14242,1.747 -5.15829,-7.673 -1.44944,0.04 z"
       id="path20" />
    <path
       style="fill:#454545;fill-opacity:1;stroke-width:1.37953"
       d="m 787.59824,15024.134 1.32154,-3.794 9.80502,10.317 3.45307,-1.108 0.51156,4.604 2.21679,0.98 -0.21316,7.546 -8.52609,-0.554 -1.1084,-2.302 c 0,0 -7.03403,0.682 -7.4177,0.554 -0.38367,-0.128 -0.93787,-1.62 -0.93787,-1.62 h -1.44944 l -0.17052,-1.492 5.0304,-2.132 z"
       id="path21" />
    <path
       style="fill:#454545;fill-opacity:1;stroke-width:1.37953"
       d="m 1099.7849,14885.861 4.0996,-0.844 4.4613,-6.27 -0.6028,-4.22 16.1573,10.128 -8.9227,3.256 -1.6881,5.064 0.9646,7.838 -8.8021,-2.532 -6.6318,-13.023 z"
       id="path22" />
    <path
       style="fill:#454545;fill-opacity:1;stroke-width:1.37953"
       d="m 889.31732,14566.844 15.55446,-10.249 -9.19401,-7.295 -7.35521,16.519 z"
       id="path23" />
    <path
       style="fill:#454545;fill-opacity:1;stroke-width:1.37953"
       d="m 987.6179,14287.798 -3.43645,3.648 13.35393,6.029 6.33032,-6.12 -8.19927,-8.953 5.78767,-7.988 -17.57409,2.291 z"
       id="path24" />
    <path
       style="fill:#454545;fill-opacity:1;stroke-width:1.37953"
       d="m 963.23116,14077.994 11.87685,-0.06 1.74837,-2.894 -12.90176,-7.054 1.74837,-1.809 -0.78375,-4.099 -14.58985,12.299 2.35126,1.446 1.68808,0.121 6.39059,5.547 z"
       id="path25" />
    <path
       style="fill:#454545;fill-opacity:1;stroke-width:1.37953"
       d="m 693.66196,13936.268 16.62589,8.804 0.93787,-5.819 1.30023,-4.988 -19.41818,0.746 z"
       id="path26" />
    <path
       style="fill:#454545;fill-opacity:1;stroke-width:1.37953"
       d="m 456.32451,14023.222 13.92667,-5.366 -0.18087,-1.839 -14.04725,-1.236 -1.32635,-6.662 -8.41026,16.73 2.41155,2.05 10.70123,1.236 -0.30145,-2.954 z"
       id="path27" />
    <path
       style="fill:#454545;fill-opacity:1;stroke-width:1.37953"
       d="m 513.52684,14248.558 13.64176,-2.814 -3.83675,-12.448 -1.961,-6.821 -12.61862,14.921 z"
       id="path28" />
    <path
       style="fill:#454545;fill-opacity:1;stroke-width:1.37953"
       d="m 258.76705,14418.483 4.43357,7.759 6.47984,-9.635 10.74288,-8.952 -0.93787,-2.814 -14.15332,0.512 -0.42631,-1.62 -3.922,0.08 -2.21679,10.828 z"
       id="path29" />
  </g>
  <g
     id="layer5"
     transform="translate(0.34104389)">
    <path
       style="fill:#454545;fill-opacity:1;stroke-width:1.37953"
       d="m 14867.413,11713.113 15.434,1.447 46.784,-17.846 32.797,-38.343 8.681,-4.341 14.47,6.993 6.27,8.441 3.617,14.228 1.688,16.398 -56.189,51.849 -23.874,13.504 -21.463,49.196 -62.459,38.826 3.376,11.575 9.164,7.476 32.797,9.405 111.413,12.781 27.733,-9.405 21.463,-0.482 56.671,28.697 12.058,0.965 17.604,-9.405 28.215,-47.267 11.817,-63.423 -2.653,-67.523 -20.257,-35.209 6.994,-78.134 -24.839,-51.607 -103.938,-22.669 -44.131,8.441 -35.45,25.321 -56.671,-11.093 -5.788,-0.965 -34.967,44.132 -46.302,25.803 6.27,27.974 z"
       id="path30" />
  </g>
  <g
     id="layer6"
     transform="translate(0.34104389)">
    <path
       style="fill:#454545;fill-opacity:1;stroke-width:1.37953"
       d="m 11126.384,9036.5395 36.173,-4.8231 10.129,-26.0447 21.221,-23.1508 -3.858,-42.9255 20.257,-74.7579 40.031,-25.08 19.293,-1.9293 34.244,78.6164 31.35,65.1117 11.093,9.1639 14.951,-15.9162 4.823,-87.298 46.784,-25.08 39.55,-52.5717 144.21,-76.2048 37.138,-8.1992 74.758,-47.2663 6.752,3.3762 13.505,-21.2216 54.501,-10.6108 -3.376,-17.3632 10.128,-6.7523 30.385,-53.5363 -44.854,-119.6126 -13.505,-44.3724 -11.575,-46.784 26.044,-95.4971 14.952,-31.8324 40.514,-38.5847 -58.842,-41.4786 -46.301,-68.9702 -26.045,-90.674 -33.762,-44.8548 -3.376,-37.1377 -15.434,-12.5401 -3.376,-54.0186 -19.292,-10.6108 -17.363,19.7747 -27.492,147.1042 -94.05,144.2104 -39.55,33.7616 -39.067,11.5754 -39.549,-10.6108 -18.328,-17.3631 9.164,-22.6685 -9.164,-19.2924 -22.186,1.4469 -17.363,15.4339 -6.27,-4.3407 -32.797,48.7132 c 0,0 -11.575,10.1284 -11.575,12.0577 0,1.9292 -18.811,17.8454 -18.811,17.8454 l -17.845,12.54 -10.128,2.4116 1.929,24.5977 18.328,23.6332 -1.447,15.9162 -33.28,13.0223 -84.404,-27.4916 -41.961,-40.514 -11.575,-31.35 13.987,-37.6201 8.199,-43.8901 -11.575,-22.1862 -17.363,-8.6816 -15.917,0.4823 -8.199,3.3762 -15.434,-9.6462 -41.961,-59.324 -3.376,-31.3501 23.633,-31.8324 -5.787,-49.6778 -16.881,-17.8454 -21.222,7.7169 -41.961,-16.3985 -12.057,-15.4339 -17.363,-76.6871 -31.833,-39.5493 -73.793,30.3855 -21.704,35.2085 -54.983,22.6685 -52.09,-6.7523 -41.478,-19.2924 -99.838,25.0801 -68.006,64.1471 15.917,36.6555 93.567,129.2587 78.135,92.121 76.204,-13.5046 25.08,23.1508 23.151,59.8063 64.63,73.7933 1.929,5.7877 4.341,8.6816 -21.704,13.0223 5.787,11.5754 -10.61,5.7877 -13.505,-23.6331 -8.682,7.7169 20.74,34.7263 12.057,-4.3408 81.028,148.0688 -15.434,27.4916 -9.646,-9.6462 -35.208,-76.6871 -17.363,-11.5754 -18.81,1.9293 -19.775,19.7746 2.894,50.1601 18.81,20.7393 64.147,69.4525 105.626,162.5381 57.877,50.6424 60.771,118.648 13.986,34.244 1.447,34.2439 z"
       id="path31" />
  </g>
  <g
     id="layer7"
     transform="translate(0.34104389)">
    <path
       style="fill:#454545;fill-opacity:1;stroke-width:1.37953"
       d="m 17176.335,8515.1839 55.931,-28.6477 159.608,274.1993 -221.678,98.9027 -99.585,171.8861 4.775,30.0119 39.561,98.9027 56.613,42.9716 154.152,92.0818 36.15,113.2266 6.139,160.2906 21.827,143.9205 27.966,42.9716 11.595,2.7283 c 0,0 54.567,48.4283 56.613,51.1566 2.047,2.7284 17.735,37.5148 17.735,37.5148 0,0 7.503,55.2491 7.503,62.07 0,6.8209 52.52,77.758 56.613,84.5789 4.092,6.8208 63.434,8.8668 63.434,8.8668 l 136.418,-45.0174 114.59,-68.2088 321.946,-5.4567 269.425,107.7698 85.261,55.9311 -17.735,34.105 20.463,27.965 96.856,47.746 242.824,-25.919 153.469,19.098 84.579,-20.462 40.925,-28.648 -8.185,-11.595 -15.688,-15.006 v -19.099 l 30.694,-10.913 1.365,-35.469 -145.967,-132.3248 -69.573,-118.0012 -303.529,-246.2337 -39.561,-62.07 9.549,-77.758 15.688,-9.5492 -40.925,-44.3357 -19.099,5.4567 -19.098,-2.7284 -39.561,-39.5611 -1.365,-14.3238 17.053,-12.9597 -23.191,-34.7864 -0.682,-19.0985 10.231,-17.7343 17.052,19.0985 13.642,14.3238 23.191,1.3642 25.237,23.8731 -12.96,53.8849 29.33,19.7805 8.185,22.5089 25.92,29.3298 222.36,-89.3535 233.956,-26.6014 145.285,-91.3998 -90.036,-220.3143 -216.904,-197.8055 -67.526,-84.5789 -37.515,-176.6607 30.694,-208.0368 -25.237,-180.0711 -47.064,-120.0475 -62.07,-43.6536 -98.221,21.8268 -175.297,124.8221 -83.896,195.0771 -108.452,145.2847 -23.191,72.9834 15.688,81.1684 50.474,92.0819 33.422,19.0984 177.343,50.4745 75.03,60.7058 v 61.3879 l -52.521,56.6133 -197.123,131.6429 -189.621,-72.9833 -175.978,-213.4935 -110.498,-27.9656 -27.284,-6.1388 -65.48,-46.382 -47.747,-71.6192 -33.422,-23.8731 -79.804,43.6536 -70.255,75.0297 -25.919,19.0985 -45.7,19.7805 -68.891,5.4567 -25.237,11.5955 -155.516,-272.8351 64.798,-40.2432 146.649,-231.2277 40.243,-154.834 -115.955,-131.6429 -44.336,10.9134 -98.22,69.5729 -248.962,70.2551 -68.209,100.949 30.694,100.949 140.51,115.9549 z"
       id="path32" />
    <path
       style="fill:#454545;fill-opacity:1;stroke-width:1.37953"
       d="m 17331.65,9874.5512 25.08,18.2072 24.356,46.1811 41.841,37.2583 31.109,2.291 22.789,14.4693 -20.981,12.9019 -39.549,-6.7525 c 0,0 -20.498,1.3265 -21.704,1.8085 -1.206,0.482 -17.845,13.746 -17.845,13.746 l -90.072,-17.7249 -28.094,-27.4916 -3.859,-22.3068 7.235,-14.3487 16.278,7.8375 21.945,-11.0931 17.845,-46.181 13.987,-9.8874 z"
       id="path33" />
  </g>
  <g
     id="layer8"
     transform="translate(0.34104389)">
    <path
       style="fill:#454545;fill-opacity:1;stroke-width:1.37953"
       d="m 13060.958,16014.228 28.818,124.822 223.213,411.81 73.666,236.002 c 0,0 -130.961,335.588 -130.961,338.998 0,3.411 -145.285,69.573 -145.285,69.573 l -233.274,389.472 -397.657,358.778 -150.059,203.945 -146.649,79.122 -36.151,166.429 0.682,10.914 49.111,-9.55 147.331,-115.272 259.193,-124.823 51.157,-79.804 263.285,-135.735 139.828,-194.395 266.015,-165.748 325.356,-104.359 222.36,-179.389 116.637,-15.688 215.54,81.85 424.259,49.793 249.644,-52.521 263.286,64.116 101.631,-141.192 27.965,-152.105 25.92,-83.897 114.59,-158.927 167.794,-118.683 217.586,10.913 141.874,-105.041 58.66,-123.458 74.347,-116.637 126.187,-97.539 81.168,3.411 72.983,75.712 75.712,91.399 26.602,-82.532 0.682,-115.955 -47.747,-100.949 -13.641,-53.885 -0.682,-87.989 11.595,-38.879 -10.231,-60.706 -23.873,-16.37 -6.821,-51.839 -0.682,-55.931 6.139,-12.96 -30.012,-73.665 -34.105,-67.527 -15.006,-7.503 -32.74,-30.694 -51.156,-203.262 -15.688,-79.122 -130.279,-146.649 -118.683,-53.885 -20.463,-25.237 -55.931,-20.463 -203.945,-133.007 -327.402,81.168 -118.001,-319.899 -102.313,2.046 -53.203,-21.826 -23.873,7.503 51.157,119.365 4.774,71.619 -98.903,175.297 -30.693,18.416 -244.87,49.792 -98.221,15.689 -417.437,210.765 -285.795,292.615 -52.521,242.141 -145.285,107.77 -52.52,12.278 -111.863,-48.428 -43.653,-30.694 -54.567,2.046 -170.522,124.822 -189.621,-89.353 z"
       id="path34" />
  </g>
  <g
     id="layer9"
     transform="translate(0.34104389)">
    <path
       style="fill:#454545;fill-opacity:1;stroke-width:1.37953"
       d="m 5514.7199,11884.574 132.1527,229.096 -8.1993,68.488 c 0,0 13.5047,23.633 13.987,25.562 0.4823,1.93 35.6908,17.364 35.6908,17.364 l 46.3017,40.031 20.7393,25.563 174.5958,-92.604 122.5065,5.788 89.2271,-33.762 102.2495,-68.005 22.1862,15.434 37.6201,1.929 102.7318,-74.276 565.7483,240.673 -8.6815,11.575 12.54,33.279 -27.0093,30.868 -72.8287,153.857 -109.0018,82.474 -90.1917,226.203 -81.5102,114.79 -33.7617,20.257 -9.6461,37.62 16.3985,19.292 32.797,20.739 103.6964,209.323 4.3408,106.108 37.1378,23.15 13.0223,5.788 106.108,167.844 v 100.32 l -95.9795,103.696 -53.5363,31.833 -34.7262,-22.669 -6.7524,-34.244 c 0,0 -25.08,-29.903 -25.08,-32.315 0,-2.411 -14.9516,-1.446 -14.9516,-1.446 l -42.4432,37.62 -30.8678,61.735 -13.0223,31.833 -110.4487,176.042 -67.041,77.17 -72.8286,-22.669 -144.6927,143.246 -156.7504,46.784 -173.1489,-89.227 -141.3165,-170.255 -80.0633,-149.998 -86.8156,-47.749 -25.5623,23.633 -46.3017,9.646 -13.0223,24.116 24.1154,37.62 -6.27,130.223 -91.6387,188.583 -2.8938,68.488 63.6647,165.432 258.5176,192.923 73.3109,42.444 79.0987,36.655 32.797,40.514 -34.7262,48.231 -57.8771,77.169 -77.1694,200.641 98.391,171.702 152.4096,77.169 13.5047,34.727 59.8063,-1.93 28.9385,-23.151 52.0894,23.151 75.2401,-7.717 30.8678,17.363 36.6555,-17.363 109.9664,5.788 23.1508,-1.929 34.7263,-90.674 -25.0801,-131.188 -63.6648,-65.594 -9.6461,-59.807 -30.8678,-32.797 57.8771,-96.461 36.6554,-15.434 44.3725,-44.373 44.3724,-23.151 50.1601,-32.797 11.5754,-40.513 28.9386,38.584 -1.9293,59.807 -32.797,30.867 -40.5139,84.887 -36.6555,27.009 -7.717,96.462 55.9479,98.391 81.0279,30.868 48.2309,-44.373 15.4338,-32.797 119.6127,-115.754 86.8156,-146.622 34.7262,-63.665 202.5697,-167.843 165.9143,-210.287 36.6555,-140.834 -65.594,-111.896 -15.4339,-42.443 27.0093,-165.914 84.8863,-246.942 109.9665,-131.188 40.5139,19.292 3.8585,19.292 100.3202,13.505 96.4618,-117.683 c 0,0 -13.5046,-30.868 -11.5754,-44.373 1.9292,-13.504 30.8678,-30.868 30.8678,-30.868 l 23.1508,-46.301 -36.6555,-71.382 -9.6462,-50.16 17.3632,-59.806 25.08,-50.16 -11.5754,-57.878 38.5847,-63.664 -19.2923,-94.533 -5.7877,-19.292 30.8677,-32.797 19.2924,-38.585 50.1601,-17.363 32.797,-113.825 v -119.613 l -77.1694,-121.541 -106.108,-248.872 7.717,-163.985 15.4339,-61.735 -3.8585,-63.665 3.8585,-88.745 v -65.594 l -81.0279,-11.575 -21.2216,25.08 -144.6927,-23.151 -181.3481,71.382 -106.108,171.702 -65.594,190.994 46.3017,23.151 -15.4339,46.301 -42.4432,15.434 -48.2309,-28.938 -38.5847,5.787 v 11.576 l -569.1245,-241.155 52.0893,-135.046 81.0279,-92.603 -15.4338,-127.33 44.3724,-46.302 -19.2924,-142.763 1.9293,-98.391 -131.1881,-104.179 -148.5511,36.656 -142.7634,-77.17 -75.2402,61.736 -102.2495,1.929 -59.8063,-57.877 -281.6684,100.32 -94.5326,237.296 21.2216,202.57 z"
       id="path35" />
    <path
       style="fill:#454545;fill-opacity:1;stroke-width:1.37953"
       d="m 7733.3409,12878.25 1.8086,-6.993 106.108,-55.948 14.831,-48.954 c 0,0 19.5335,-23.272 20.3775,-24.477 0.8441,-1.206 35.3292,-36.415 35.3292,-36.415 l 8.6815,-60.771 -42.9255,-51.607 -124.4357,-233.92 10.1285,-118.647 -41.9609,-115.755 28.4563,-63.182 -5.7877,-52.089 32.3146,-99.356 14.9516,-110.449 4.8231,3.376 41.9609,-57.394 76.2048,-30.868 87.7802,9.164 24.5978,11.575 102.5375,-90.937 267.3784,40.925 190.9846,190.984 4.0925,64.117 42.2895,23.191 24.5551,111.862 -24.5551,42.29 19.0984,45.017 -36.8327,64.117 -40.9253,40.925 -6.8209,31.376 v 32.74 l 9.5493,133.689 -144.6026,204.627 -76.3939,24.555 4.0925,46.382 61.3879,257.829 204.6264,77.758 117.3191,5.457 62.7521,70.937 23.1909,6.821 214.1756,-98.221 51.8387,-57.295 135.0534,-34.105 90.0355,34.105 96.8565,-72.302 216.9039,50.475 70.9372,175.979 -36.8328,236.002 -128.2325,257.829 10.9134,24.555 -16.3701,20.463 -43.6536,-2.728 -36.8327,1.364 -100.949,173.25 73.6654,177.343 163.7011,99.585 13.6418,53.202 -182.7996,291.934 -60.0237,135.053 v 54.567 l 57.2954,301.483 225.089,171.886 31.376,73.666 -43.6536,184.164 20.4626,36.832 -75.0296,34.105 -122.7758,-30.012 -99.5849,19.098 -72.3013,-266.014 2.7284,-60.024 -92.764,-99.585 -85.943,-75.029 -135.0534,-205.991 -238.7307,-141.874 -328.7663,-233.274 4.0925,-42.289 35.4686,-27.284 6.8208,-28.648 -79.1221,-148.695 -234.6382,-130.961 -147.331,-242.823 -84.5789,-19.098 -10.9134,-95.493 -23.191,-2.728 32.7402,-62.752 4.0926,-62.752 -84.5789,-8.185 -60.0238,-132.325 -39.561,-126.868 8.185,-105.042 16.3701,-102.313 1.3642,-13.642 46.382,-62.752 10.9134,-132.325 24.5551,1.364 2.7284,-23.191 z"
       id="path36" />
    <path
       style="fill:#454545;fill-opacity:1;stroke-width:1.37953"
       d="m 9006.2871,11810.35 45.6999,-8.185 -11.5955,-35.469 106.4057,-42.971 13.6417,4.774 113.2266,23.874 12.9597,-10.914 107.7698,12.96 30.0119,13.642 107.0878,14.323 17.0522,-90.717 38.1969,-10.914 -19.0985,-47.746 15.6881,-118.001 35.4685,-19.098 -68.8908,-38.88 -13.6418,-4.774 -77.758,-93.446 -130.2788,-36.833 -130.2787,-1.364 -6.8209,-4.775 -118.0012,-8.867 -15.688,97.539 -134.3713,30.694 -42.2895,117.319 -21.1447,17.734 -26.6014,140.51 144.6026,32.058 z"
       id="path37" />
  </g>
</svg>
